<svg width="193" height="34" viewBox="0 0 193 34" fill="none" xmlns="http://www.w3.org/2000/svg">
<path d="M15.416 22.104C18.04 25.944 23.928 32.024 30.296 32.024C32.344 32.024 34.456 31.384 36.504 29.848C36.824 29.592 36.888 29.752 36.696 29.912C34.168 32.248 31.48 33.176 28.888 33.176C22.232 33.176 15.96 27.096 13.144 22.904C12.952 22.648 12.696 22.264 12.44 21.848C9.464 25.784 6.84 29.592 6.84 30.36C6.84 30.552 6.872 30.68 7.16 30.68C8.056 30.68 8.728 30.52 9.624 30.008C8.888 30.744 7.608 31.672 6.488 31.672C5.528 31.672 5.4 30.872 5.4 30.328C5.4 28.12 8.536 22.936 11.128 19.224L11 18.872C10.744 18.136 10.584 17.592 10.648 17.272C11.064 15.192 13.496 14.264 12.984 14.872C12.792 15.128 12.696 15.576 12.792 16.088C12.824 16.28 12.888 16.504 12.984 16.728C16.696 11.8 22.936 4.376 25.816 4.376C26.968 4.376 27.992 4.888 28.568 5.528C26.584 4.6 17.944 14.872 14.52 19.192C21.816 18.84 35.704 12.216 35.384 6.456C35.16 2.872 30.296 1.208 26.616 1.208C14.584 1.208 2.392 10.968 2.392 14.712C2.392 15.992 3.416 16.856 4.184 16.92C4.184 16.92 4.088 17.08 3.352 17.08C1.176 17.08 0.12 15.704 0.12 14.008C0.12 8.248 13.08 0.279999 25.336 0.279999C29.656 0.279999 36.952 1.848 37.304 7.672C37.656 13.688 25.752 20.632 16.44 20.632C15.768 20.632 15.128 20.6 14.488 20.536C14.744 21.08 15.096 21.624 15.416 22.104ZM37.677 24.088C38.221 22.616 39.437 20.344 40.621 18.872C37.389 22.168 33.101 26.776 31.181 27.16C31.117 27.16 30.925 27.16 30.925 27.16C30.413 27.16 29.421 26.296 29.421 25.528C29.421 24.152 31.181 20.92 33.005 18.392C34.125 16.824 35.469 15.288 36.269 14.648C36.429 14.488 36.621 14.456 36.717 14.456C37.485 14.456 38.733 15.704 38.733 16.536C38.733 16.664 38.605 16.504 38.317 16.472C37.837 16.408 36.493 18.072 35.405 19.48C33.773 21.624 32.173 24.408 32.173 25.336C33.709 24.696 36.973 21.816 38.509 20.344C40.173 18.712 42.541 15.928 44.365 14.52C44.525 14.392 44.685 14.36 44.813 14.36C45.581 14.36 46.797 15.608 46.797 16.408C46.797 16.536 46.701 16.376 46.413 16.344C46.189 16.344 45.773 16.632 45.357 17.08C44.877 17.592 43.981 18.744 42.925 20.152C41.325 22.296 40.141 24.568 40.141 25.464C42.157 24.856 46.701 20.504 48.653 18.648C48.845 18.488 49.005 18.744 48.909 18.84C46.125 21.88 40.909 27.224 38.989 27.224C38.829 27.224 38.637 27.16 38.477 27.032C37.965 26.776 37.325 26.04 37.325 25.464C37.325 25.144 37.517 24.568 37.677 24.088ZM61.2455 16.6C60.4455 17.24 55.4855 23.992 55.4215 25.496C57.4375 24.952 62.0135 20.568 64.0615 18.648C64.2535 18.488 64.4135 18.744 64.3175 18.84C61.5335 21.88 56.3175 27.16 54.3975 27.16C54.0775 27.16 53.7255 26.872 53.4055 26.488C53.0535 26.072 52.8295 25.592 52.8295 25.24C52.8295 23.416 56.5415 18.072 58.2055 16.568C55.5815 17.752 50.8775 21.624 48.5095 24.184C48.0935 24.6 47.7095 25.08 47.3575 25.528C46.4935 26.552 46.2695 27.416 46.7495 27.64C45.7895 27.864 45.0215 26.84 44.7655 25.912C44.7015 25.688 44.8615 24.824 45.6615 23.352C46.4295 21.848 47.6455 19.96 48.7015 18.488C49.8535 16.856 51.2615 15.16 52.0935 14.52C52.2215 14.392 52.4135 14.36 52.5095 14.36C53.3095 14.36 54.5255 15.608 54.5255 16.408C54.5255 16.536 54.3975 16.376 54.1415 16.344C53.7255 16.312 52.5415 17.656 51.5815 18.904C50.0775 20.888 48.4135 23.256 47.9335 24.152C48.2855 23.64 48.8935 23 49.5655 22.36C53.1495 18.84 58.7815 14.52 59.8695 14.52C60.6375 14.52 61.6615 16.248 61.2455 16.6ZM63.639 22.68C63.063 23.352 62.455 24.376 62.359 25.208C62.327 25.592 62.615 25.816 63.319 25.816C65.655 25.816 71.511 21.368 74.743 18.68C74.839 18.616 75.063 18.776 74.967 18.872C72.567 21.112 66.199 27.224 61.943 27.224C60.951 27.224 59.671 26.072 59.671 25.208C59.671 24.44 59.863 23.8 60.119 23.096C60.887 21.272 62.519 19.256 64.535 17.56C67.191 15.352 70.039 14.36 71.415 14.36C71.895 14.36 73.367 15.096 73.367 15.992C73.367 17.976 67.223 22.584 63.639 22.68ZM72.343 15.32C68.791 16.472 65.111 20.344 64.055 22.04C66.839 21.72 72.151 16.536 72.343 15.32ZM110.827 1.88C101.387 1.752 91.6273 8.056 91.6273 11.224C91.6273 12.088 92.0433 12.792 92.6513 13.144C91.2433 13.144 89.9953 11.8 89.9953 10.264C89.9953 5.432 99.7233 0.855999 108.491 0.823999C117.099 0.791998 122.571 4.408 122.411 10.36C122.155 21.208 101.707 33.624 85.1953 33.624C83.2753 33.624 79.5633 33.144 79.5633 30.264C79.5633 26.712 86.3153 21.72 93.1313 19.32C93.1313 19.352 93.0673 19.384 92.9393 19.48C87.7552 21.88 81.0033 26.616 81.0033 29.944C81.0033 31.32 83.2113 31.544 84.4913 31.544C98.7633 31.544 120.491 18.904 120.491 8.344C120.491 4.248 115.531 1.944 110.827 1.88ZM108.939 9.624C104.299 14.488 97.5153 22.936 97.5153 24.312C98.0593 24.312 98.6033 24.216 99.3713 23.832C99.2433 24.28 97.8033 25.24 97.1632 25.24C96.7473 25.24 96.2673 24.92 96.2673 24.28C96.2673 22.008 102.283 12.92 106.763 7.992C107.467 7.192 109.643 4.824 110.923 4.824C111.147 4.824 111.435 4.888 111.659 4.984C113.099 5.496 113.835 6.936 113.355 6.552C112.843 6.264 112.139 6.616 111.339 7.256C110.795 7.704 110.219 8.28 108.939 9.624ZM121.639 22.68C121.063 23.352 120.455 24.376 120.359 25.208C120.327 25.592 120.615 25.816 121.319 25.816C123.655 25.816 129.511 21.368 132.743 18.68C132.839 18.616 133.063 18.776 132.967 18.872C130.567 21.112 124.199 27.224 119.943 27.224C118.951 27.224 117.671 26.072 117.671 25.208C117.671 24.44 117.863 23.8 118.119 23.096C118.887 21.272 120.519 19.256 122.535 17.56C125.191 15.352 128.039 14.36 129.415 14.36C129.895 14.36 131.367 15.096 131.367 15.992C131.367 17.976 125.223 22.584 121.639 22.68ZM130.343 15.32C126.791 16.472 123.111 20.344 122.055 22.04C124.839 21.72 130.151 16.536 130.343 15.32ZM140.382 15.64C138.91 15.512 133.95 18.552 133.534 20.056C133.406 20.6 134.174 21.112 134.494 21.4C139.614 18.52 143.71 17.816 144.126 17.816C144.19 17.816 144.318 17.88 144.318 17.976C144.606 18.072 138.27 19.736 134.782 21.816C135.198 22.136 135.998 23.064 135.902 23.736C135.454 25.816 131.23 27.512 129.149 27.512C128.445 27.512 128.093 26.936 127.933 26.232C128.029 24.856 132.734 22.168 133.854 21.72C133.502 21.272 131.614 20.12 131.902 18.712C132.414 16.28 137.022 13.88 139.838 13.88C140.734 13.88 141.15 15.352 141.054 16.28C141.022 16.728 139.006 18.648 138.142 18.648C138.11 18.648 138.046 18.52 138.078 18.52C138.174 18.52 140.318 16.28 140.382 15.64ZM133.982 22.264C132.062 23.352 129.694 24.952 128.765 25.88C130.014 25.528 133.982 23.48 133.982 22.264ZM141.764 22.68C141.188 23.352 140.58 24.376 140.484 25.208C140.452 25.592 140.74 25.816 141.444 25.816C143.78 25.816 149.636 21.368 152.868 18.68C152.964 18.616 153.188 18.776 153.092 18.872C150.692 21.112 144.324 27.224 140.068 27.224C139.076 27.224 137.796 26.072 137.796 25.208C137.796 24.44 137.988 23.8 138.244 23.096C139.012 21.272 140.644 19.256 142.66 17.56C145.316 15.352 148.164 14.36 149.54 14.36C150.02 14.36 151.492 15.096 151.492 15.992C151.492 17.976 145.348 22.584 141.764 22.68ZM150.468 15.32C146.916 16.472 143.236 20.344 142.18 22.04C144.964 21.72 150.276 16.536 150.468 15.32ZM152.699 18.488C153.819 16.856 155.195 15.224 155.995 14.584C156.187 14.456 156.315 14.424 156.443 14.424C157.211 14.424 158.427 15.672 158.427 16.472C158.427 16.6 158.331 16.44 158.075 16.408C157.595 16.376 156.475 17.624 155.515 18.904C154.651 20.056 153.531 21.56 152.859 22.744C154.555 20.536 157.755 17.848 160.507 15.864C161.755 14.968 162.715 14.424 163.387 14.36C163.739 14.328 165.051 15.704 164.827 15.96C164.123 16.696 161.467 19.032 160.411 21.528C161.947 21.4 164.155 19.96 166.139 18.2C166.171 18.168 166.363 18.136 166.395 18.2C165.819 18.968 161.979 22.552 159.771 22.552C159.195 22.552 158.235 21.432 158.235 21.048C158.235 20.152 159.259 18.296 160.091 17.336C157.147 19.064 155.643 20.344 153.467 22.744C151.835 24.504 149.915 27.32 150.618 27.64C149.691 27.864 148.922 26.872 148.698 25.976C148.634 25.688 148.794 25.08 149.178 24.344C149.979 22.52 151.419 20.312 152.699 18.488ZM171.746 9.048C174.242 5.784 175.138 4.76 175.938 4.12C176.418 3.736 176.834 3.48 177.122 3.48C178.914 3.384 180.194 5.24 179.586 4.888C178.562 4.408 176.674 6.968 175.266 8.792C180.418 8.536 187.17 8.792 191.746 9.752C192.002 9.816 192.13 9.88 191.746 9.848C185.41 9.304 179.554 9.336 174.21 10.136C173.026 11.608 171.97 13.208 170.69 15.096C167.906 19.32 165.506 23.384 164.738 25.432C166.114 25.592 171.426 20.376 173.314 18.648C173.506 18.488 173.634 18.744 173.538 18.84C171.97 20.632 166.402 26.456 164.482 27.16C164.066 27.32 163.746 27.192 163.458 27.032C163.202 26.904 162.498 26.232 162.306 25.752C162.274 25.688 162.21 25.624 162.21 25.272C162.21 24.312 163.65 21.176 167.586 15.096C168.45 13.784 169.378 12.376 170.562 10.808C167.522 11.416 165.634 12.952 166.466 13.432C165.954 13.432 164.866 12.824 164.77 11.8C164.642 10.36 168.162 9.464 171.746 9.048ZM181.038 15.64C179.566 15.512 174.606 18.552 174.19 20.056C174.062 20.6 174.83 21.112 175.15 21.4C180.27 18.52 184.366 17.816 184.782 17.816C184.846 17.816 184.974 17.88 184.974 17.976C185.262 18.072 178.926 19.736 175.438 21.816C175.854 22.136 176.654 23.064 176.558 23.736C176.11 25.816 171.886 27.512 169.806 27.512C169.102 27.512 168.75 26.936 168.59 26.232C168.686 24.856 173.39 22.168 174.51 21.72C174.158 21.272 172.27 20.12 172.558 18.712C173.07 16.28 177.678 13.88 180.494 13.88C181.39 13.88 181.806 15.352 181.71 16.28C181.678 16.728 179.662 18.648 178.798 18.648C178.766 18.648 178.702 18.52 178.734 18.52C178.83 18.52 180.974 16.28 181.038 15.64ZM174.638 22.264C172.718 23.352 170.35 24.952 169.422 25.88C170.67 25.528 174.638 23.48 174.638 22.264Z" fill="#1E9658"/>
</svg>
